<?xml version="1.0" standalone="no"?><svg xmlns="http://www.w3.org/2000/svg" viewBox="0 0 1440 320"><path fill="#f3f4f5" fill-opacity="1" d="M0,32L24,69.3C48,107,96,181,144,208C192,235,240,213,288,186.7C336,160,384,128,432,112C480,96,528,96,576,133.3C624,171,672,245,720,261.3C768,277,816,235,864,197.3C912,160,960,128,1008,112C1056,96,1104,96,1152,106.7C1200,117,1248,139,1296,138.7C1344,139,1392,117,1416,106.7L1440,96L1440,320L1416,320C1392,320,1344,320,1296,320C1248,320,1200,320,1152,320C1104,320,1056,320,1008,320C960,320,912,320,864,320C816,320,768,320,720,320C672,320,624,320,576,320C528,320,480,320,432,320C384,320,336,320,288,320C240,320,192,320,144,320C96,320,48,320,24,320L0,320Z"></path></svg>